<svg width="20" height="16" viewBox="0 0 20 16" fill="none" xmlns="http://www.w3.org/2000/svg">
<mask id="path-1-outside-1_69_3313" maskUnits="userSpaceOnUse" x="0" y="0" width="20" height="16" fill="black">
<rect fill="white" width="20" height="16"/>
<path fill-rule="evenodd" clip-rule="evenodd" d="M1 3C1 1.89543 1.89543 1 3 1H17C18.1046 1 19 1.89543 19 3V13C19 14.1046 18.1046 15 17 15H3C1.89543 15 1 14.1046 1 13V3ZM13 5H15C15.5523 5 16 5.44772 16 6C16 6.55228 15.5523 7 15 7H14C13.4477 7 13 7.44772 13 8C13 8.55228 13.4477 9 14 9H15C15.5523 9 16 9.44772 16 10C16 10.5523 15.5523 11 15 11H13C11.8954 11 11 10.1046 11 9V7C11 5.89543 11.8954 5 13 5ZM8 5H6C4.89543 5 4 5.89543 4 7V9C4 10.1046 4.89543 11 6 11H8C8.55228 11 9 10.5523 9 10C9 9.44772 8.55228 9 8 9H7C6.44772 9 6 8.55228 6 8C6 7.44772 6.44772 7 7 7H8C8.55228 7 9 6.55228 9 6C9 5.44772 8.55228 5 8 5Z"/>
</mask>
<path fill-rule="evenodd" clip-rule="evenodd" d="M1 3C1 1.89543 1.89543 1 3 1H17C18.1046 1 19 1.89543 19 3V13C19 14.1046 18.1046 15 17 15H3C1.89543 15 1 14.1046 1 13V3ZM13 5H15C15.5523 5 16 5.44772 16 6C16 6.55228 15.5523 7 15 7H14C13.4477 7 13 7.44772 13 8C13 8.55228 13.4477 9 14 9H15C15.5523 9 16 9.44772 16 10C16 10.5523 15.5523 11 15 11H13C11.8954 11 11 10.1046 11 9V7C11 5.89543 11.8954 5 13 5ZM8 5H6C4.89543 5 4 5.89543 4 7V9C4 10.1046 4.89543 11 6 11H8C8.55228 11 9 10.5523 9 10C9 9.44772 8.55228 9 8 9H7C6.44772 9 6 8.55228 6 8C6 7.44772 6.44772 7 7 7H8C8.55228 7 9 6.55228 9 6C9 5.44772 8.55228 5 8 5Z" fill="#EAEAEA"/>
<path d="M3 1V0C1.34315 0 0 1.34315 0 3H1H2C2 2.44772 2.44772 2 3 2V1ZM17 1V0H3V1V2H17V1ZM19 3H20C20 1.34315 18.6569 0 17 0V1V2C17.5523 2 18 2.44772 18 3H19ZM19 13H20V3H19H18V13H19ZM17 15V16C18.6569 16 20 14.6569 20 13H19H18C18 13.5523 17.5523 14 17 14V15ZM3 15V16H17V15V14H3V15ZM1 13H0C0 14.6569 1.34315 16 3 16V15V14C2.44772 14 2 13.5523 2 13H1ZM1 3H0V13H1H2V3H1ZM15 5V4H13V5V6H15V5ZM16 6H17C17 4.89543 16.1046 4 15 4V5V6H16ZM15 7V8C16.1046 8 17 7.10457 17 6H16H15V7ZM14 7V8H15V7V6H14V7ZM13 8H14V7V6C12.8954 6 12 6.89543 12 8H13ZM14 9V8H13H12C12 9.10457 12.8954 10 14 10V9ZM15 9V8H14V9V10H15V9ZM16 10H17C17 8.89543 16.1046 8 15 8V9V10H16ZM15 11V12C16.1046 12 17 11.1046 17 10H16H15V11ZM13 11V12H15V11V10H13V11ZM11 9H10C10 10.6569 11.3431 12 13 12V11V10C12.4477 10 12 9.55229 12 9H11ZM11 7H10V9H11H12V7H11ZM13 5V4C11.3431 4 10 5.34314 10 7H11H12C12 6.44771 12.4477 6 13 6V5ZM6 5V6H8V5V4H6V5ZM4 7H5C5 6.44771 5.44772 6 6 6V5V4C4.34315 4 3 5.34314 3 7H4ZM4 9H5V7H4H3V9H4ZM6 11V10C5.44772 10 5 9.55229 5 9H4H3C3 10.6569 4.34315 12 6 12V11ZM8 11V10H6V11V12H8V11ZM9 10H8V11V12C9.10457 12 10 11.1046 10 10H9ZM8 9V10H9H10C10 8.89543 9.10457 8 8 8V9ZM7 9V10H8V9V8H7V9ZM6 8H5C5 9.10457 5.89543 10 7 10V9V8H6ZM7 7V6C5.89543 6 5 6.89543 5 8H6H7V7ZM8 7V6H7V7V8H8V7ZM9 6H8V7V8C9.10457 8 10 7.10457 10 6H9ZM8 5V6H9H10C10 4.89543 9.10457 4 8 4V5Z" fill="black" fill-opacity="0.1" mask="url(#path-1-outside-1_69_3313)"/>
</svg>
