<svg width="16" height="21" viewBox="0 0 16 21" fill="none" xmlns="http://www.w3.org/2000/svg">
<mask id="path-1-outside-1_69_3318" maskUnits="userSpaceOnUse" x="0" y="-0.585815" width="16" height="22" fill="black">
<rect fill="white" y="-0.585815" width="16" height="22"/>
<path fill-rule="evenodd" clip-rule="evenodd" d="M1 7.41418H5L10 2.41418V18.4142L5 13.4142H1V7.41418ZM12 6.41418V14.4142L13.65 12.2142C14.45 11.1475 14.45 9.68085 13.65 8.61419L12 6.41418Z"/>
</mask>
<path fill-rule="evenodd" clip-rule="evenodd" d="M1 7.41418H5L10 2.41418V18.4142L5 13.4142H1V7.41418ZM12 6.41418V14.4142L13.65 12.2142C14.45 11.1475 14.45 9.68085 13.65 8.61419L12 6.41418Z" fill="#EAEAEA"/>
<path d="M5 7.41418V8.41418H5.41421L5.70711 8.12129L5 7.41418ZM1 7.41418V6.41418H0V7.41418H1ZM10 2.41418H11V-2.90871e-05L9.29289 1.70708L10 2.41418ZM10 18.4142L9.29289 19.1213L11 20.8284V18.4142H10ZM5 13.4142L5.70711 12.7071L5.41421 12.4142H5V13.4142ZM1 13.4142H0V14.4142H1V13.4142ZM12 14.4142H11V17.4142L12.8 15.0142L12 14.4142ZM12 6.41418L12.8 5.81418L11 3.41419V6.41418H12ZM13.65 12.2142L14.45 12.8142L14.45 12.8142L13.65 12.2142ZM13.65 8.61419L14.45 8.01419V8.01418L13.65 8.61419ZM5 7.41418V6.41418H1V7.41418V8.41418H5V7.41418ZM10 2.41418L9.29289 1.70708L4.29289 6.70708L5 7.41418L5.70711 8.12129L10.7071 3.12129L10 2.41418ZM10 18.4142H11V2.41418H10H9V18.4142H10ZM5 13.4142L4.29289 14.1213L9.29289 19.1213L10 18.4142L10.7071 17.7071L5.70711 12.7071L5 13.4142ZM1 13.4142V14.4142H5V13.4142V12.4142H1V13.4142ZM1 7.41418H0V13.4142H1H2V7.41418H1ZM12 14.4142H13V6.41418H12H11V14.4142H12ZM13.65 12.2142L12.85 11.6142L11.2 13.8142L12 14.4142L12.8 15.0142L14.45 12.8142L13.65 12.2142ZM13.65 8.61419L12.85 9.21419C13.3833 9.92529 13.3833 10.9031 12.85 11.6142L13.65 12.2142L14.45 12.8142C15.5167 11.392 15.5167 9.43641 14.45 8.01419L13.65 8.61419ZM12 6.41418L11.2 7.01418L12.85 9.21419L13.65 8.61419L14.45 8.01418L12.8 5.81418L12 6.41418Z" fill="black" fill-opacity="0.1" mask="url(#path-1-outside-1_69_3318)"/>
</svg>
