<svg width="22" height="16" viewBox="0 0 22 16" fill="none" xmlns="http://www.w3.org/2000/svg">
<mask id="path-1-outside-1_69_3304" maskUnits="userSpaceOnUse" x="0" y="0" width="22" height="16" fill="black">
<rect fill="white" width="22" height="16"/>
<path d="M21 15H1V1H21V15ZM3 3V13H19V3H3Z"/>
</mask>
<path d="M21 15H1V1H21V15ZM3 3V13H19V3H3Z" fill="#EAEAEA"/>
<path d="M21 15V16H22V15H21ZM1 15H0V16H1V15ZM1 1V0H0V1H1ZM21 1H22V0H21V1ZM3 3V2H2V3H3ZM3 13H2V14H3V13ZM19 13V14H20V13H19ZM19 3H20V2H19V3ZM21 15V14H1V15V16H21V15ZM1 15H2V1H1H0V15H1ZM1 1V2H21V1V0H1V1ZM21 1H20V15H21H22V1H21ZM3 3H2V13H3H4V3H3ZM3 13V14H19V13V12H3V13ZM19 13H20V3H19H18V13H19ZM19 3V2H3V3V4H19V3Z" fill="black" fill-opacity="0.1" mask="url(#path-1-outside-1_69_3304)"/>
</svg>
