<svg width="21" height="18" viewBox="0 0 21 18" fill="none" xmlns="http://www.w3.org/2000/svg">
<mask id="path-1-outside-1_69_3307" maskUnits="userSpaceOnUse" x="0" y="0" width="17" height="18" fill="black">
<rect fill="white" width="17" height="18"/>
<path fill-rule="evenodd" clip-rule="evenodd" d="M6.30774 2C6.30774 1.44772 6.75545 1 7.30774 1H9.30774C9.86002 1 10.3077 1.44772 10.3077 2V2.6342C10.3077 3.05798 10.5789 3.42843 10.9589 3.61593C11.039 3.65546 11.1181 3.69673 11.1962 3.73968C11.5678 3.94416 12.0271 3.95399 12.3745 3.71072L12.8947 3.34653C13.3471 3.02975 13.9706 3.1397 14.2874 3.5921L15.4345 5.2304C15.7513 5.68281 15.6414 6.30636 15.1889 6.62313L14.669 6.98717C14.322 7.23016 14.174 7.66452 14.2382 8.08328C14.284 8.38213 14.3077 8.68827 14.3077 9C14.3077 9.31161 14.284 9.61771 14.2382 9.91655C14.174 10.3353 14.322 10.7696 14.669 11.0125L15.189 11.3766C15.6414 11.6934 15.7514 12.3169 15.4346 12.7694L14.2875 14.4076C13.9707 14.86 13.3471 14.97 12.8947 14.6532L12.3747 14.2891C12.0273 14.0458 11.5679 14.0556 11.1964 14.2601C11.1183 14.3031 11.0391 14.3444 10.9589 14.384C10.5789 14.5716 10.3077 14.942 10.3077 15.3658V16C10.3077 16.5523 9.86002 17 9.30774 17H7.30774C6.75545 17 6.30774 16.5523 6.30774 16V15.3658C6.30774 14.942 6.03661 14.5716 5.65657 14.384C5.57639 14.3444 5.49722 14.3031 5.41911 14.2601C5.04755 14.0556 4.58817 14.0458 4.24075 14.2891L3.72084 14.6532C3.26843 14.97 2.64486 14.86 2.32807 14.4076L1.18094 12.7693C0.86416 12.3169 0.974108 11.6934 1.42651 11.3766L1.94647 11.0125C2.29346 10.7696 2.44147 10.3353 2.3773 9.91656C2.3315 9.61772 2.30774 9.31161 2.30774 9C2.30774 8.68827 2.33151 8.38212 2.37733 8.08327C2.44154 7.66452 2.29354 7.23016 1.94651 6.98717L1.4266 6.62313C0.974181 6.30636 0.864226 5.68281 1.18101 5.2304L2.32815 3.59211C2.64493 3.1397 3.26848 3.02976 3.72089 3.34655L4.24094 3.7107C4.58836 3.95398 5.04772 3.94416 5.4193 3.73968C5.49735 3.69673 5.57646 3.65546 5.65658 3.61593C6.03662 3.42843 6.30774 3.05798 6.30774 2.6342V2ZM8.30774 11C9.41231 11 10.3077 10.1046 10.3077 9C10.3077 7.89543 9.41231 7 8.30774 7C7.20317 7 6.30774 7.89543 6.30774 9C6.30774 10.1046 7.20317 11 8.30774 11Z"/>
</mask>
<path fill-rule="evenodd" clip-rule="evenodd" d="M6.30774 2C6.30774 1.44772 6.75545 1 7.30774 1H9.30774C9.86002 1 10.3077 1.44772 10.3077 2V2.6342C10.3077 3.05798 10.5789 3.42843 10.9589 3.61593C11.039 3.65546 11.1181 3.69673 11.1962 3.73968C11.5678 3.94416 12.0271 3.95399 12.3745 3.71072L12.8947 3.34653C13.3471 3.02975 13.9706 3.1397 14.2874 3.5921L15.4345 5.2304C15.7513 5.68281 15.6414 6.30636 15.1889 6.62313L14.669 6.98717C14.322 7.23016 14.174 7.66452 14.2382 8.08328C14.284 8.38213 14.3077 8.68827 14.3077 9C14.3077 9.31161 14.284 9.61771 14.2382 9.91655C14.174 10.3353 14.322 10.7696 14.669 11.0125L15.189 11.3766C15.6414 11.6934 15.7514 12.3169 15.4346 12.7694L14.2875 14.4076C13.9707 14.86 13.3471 14.97 12.8947 14.6532L12.3747 14.2891C12.0273 14.0458 11.5679 14.0556 11.1964 14.2601C11.1183 14.3031 11.0391 14.3444 10.9589 14.384C10.5789 14.5716 10.3077 14.942 10.3077 15.3658V16C10.3077 16.5523 9.86002 17 9.30774 17H7.30774C6.75545 17 6.30774 16.5523 6.30774 16V15.3658C6.30774 14.942 6.03661 14.5716 5.65657 14.384C5.57639 14.3444 5.49722 14.3031 5.41911 14.2601C5.04755 14.0556 4.58817 14.0458 4.24075 14.2891L3.72084 14.6532C3.26843 14.97 2.64486 14.86 2.32807 14.4076L1.18094 12.7693C0.86416 12.3169 0.974108 11.6934 1.42651 11.3766L1.94647 11.0125C2.29346 10.7696 2.44147 10.3353 2.3773 9.91656C2.3315 9.61772 2.30774 9.31161 2.30774 9C2.30774 8.68827 2.33151 8.38212 2.37733 8.08327C2.44154 7.66452 2.29354 7.23016 1.94651 6.98717L1.4266 6.62313C0.974181 6.30636 0.864226 5.68281 1.18101 5.2304L2.32815 3.59211C2.64493 3.1397 3.26848 3.02976 3.72089 3.34655L4.24094 3.7107C4.58836 3.95398 5.04772 3.94416 5.4193 3.73968C5.49735 3.69673 5.57646 3.65546 5.65658 3.61593C6.03662 3.42843 6.30774 3.05798 6.30774 2.6342V2ZM8.30774 11C9.41231 11 10.3077 10.1046 10.3077 9C10.3077 7.89543 9.41231 7 8.30774 7C7.20317 7 6.30774 7.89543 6.30774 9C6.30774 10.1046 7.20317 11 8.30774 11Z" fill="#EAEAEA"/>
<path d="M1.4266 6.62313L2.00016 5.80397L1.4266 6.62313ZM1.18101 5.2304L0.361856 4.65682L1.18101 5.2304ZM1.94651 6.98717L1.37294 7.80633L1.94651 6.98717ZM1.94647 11.0125L2.52005 11.8317L1.94647 11.0125ZM1.18094 12.7693L0.361787 13.3429L1.18094 12.7693ZM1.42651 11.3766L2.00009 12.1958L1.42651 11.3766ZM2.32807 14.4076L3.14722 13.834L2.32807 14.4076ZM5.41911 14.2601L5.90136 13.3841L5.41911 14.2601ZM4.24075 14.2891L3.66713 13.47L4.24075 14.2891ZM5.65657 14.384L5.21401 15.2808L5.65657 14.384ZM10.9589 14.384L10.5164 13.4873L10.9589 14.384ZM12.8947 14.6532L13.4683 13.8341L12.8947 14.6532ZM15.4346 12.7694L14.6154 12.1958L15.4346 12.7694ZM14.669 11.0125L14.0955 11.8317L14.669 11.0125ZM14.2382 8.08328L13.2497 8.23478L14.2382 8.08328ZM15.4345 5.2304L16.2537 4.65682L15.4345 5.2304ZM15.1889 6.62313L14.6154 5.80397L15.1889 6.62313ZM12.8947 3.34653L13.4682 4.16568L12.8947 3.34653ZM14.2874 3.5921L13.4682 4.16568L14.2874 3.5921ZM12.3745 3.71072L11.801 2.89157L12.3745 3.71072ZM10.9589 3.61593L10.5164 4.51272L10.9589 3.61593ZM12.3747 14.2891L12.9483 13.4699L12.3747 14.2891ZM11.1964 14.2601L10.7141 13.3841L11.1964 14.2601ZM9.30774 1V0H7.30774V1V2H9.30774V1ZM10.3077 2.6342H11.3077V2H10.3077H9.30774V2.6342H10.3077ZM11.1962 3.73968L11.6783 2.86358C11.5872 2.81345 11.4949 2.76529 11.4014 2.71915L10.9589 3.61593L10.5164 4.51272C10.5832 4.54564 10.649 4.58001 10.7141 4.61578L11.1962 3.73968ZM12.8947 3.34653L12.3211 2.52738L11.801 2.89157L12.3745 3.71072L12.9481 4.52987L13.4682 4.16568L12.8947 3.34653ZM15.4345 5.2304L16.2537 4.65682L15.1065 3.01852L14.2874 3.5921L13.4682 4.16568L14.6154 5.80397L15.4345 5.2304ZM14.669 6.98717L15.2426 7.80633L15.7625 7.44229L15.1889 6.62313L14.6154 5.80397L14.0955 6.16801L14.669 6.98717ZM14.3077 9H15.3077C15.3077 8.6374 15.2801 8.28061 15.2266 7.93178L14.2382 8.08328L13.2497 8.23478C13.2879 8.48364 13.3077 8.73914 13.3077 9H14.3077ZM14.2382 9.91655L15.2266 10.068C15.2801 9.71925 15.3077 9.3625 15.3077 9H14.3077H13.3077C13.3077 9.26072 13.2879 9.51618 13.2497 9.76506L14.2382 9.91655ZM15.189 11.3766L15.7626 10.5575L15.2426 10.1934L14.669 11.0125L14.0955 11.8317L14.6154 12.1958L15.189 11.3766ZM14.2875 14.4076L15.1066 14.9812L16.2537 13.3429L15.4346 12.7694L14.6154 12.1958L13.4683 13.8341L14.2875 14.4076ZM12.3747 14.2891L11.8011 15.1082L12.3211 15.4723L12.8947 14.6532L13.4683 13.8341L12.9483 13.4699L12.3747 14.2891ZM10.9589 14.384L11.4015 15.2808C11.4951 15.2346 11.5875 15.1863 11.6786 15.1362L11.1964 14.2601L10.7141 13.3841C10.6491 13.4199 10.5831 13.4543 10.5164 13.4873L10.9589 14.384ZM10.3077 16H11.3077V15.3658H10.3077H9.30774V16H10.3077ZM7.30774 17V18H9.30774V17V16H7.30774V17ZM6.30774 15.3658H5.30774V16H6.30774H7.30774V15.3658H6.30774ZM5.41911 14.2601L4.93687 15.1362C5.02801 15.1864 5.12041 15.2346 5.21401 15.2808L5.65657 14.384L6.09913 13.4873C6.03236 13.4543 5.96643 13.4199 5.90136 13.3841L5.41911 14.2601ZM3.72083 14.6532L4.29445 15.4723L4.81436 15.1082L4.24075 14.2891L3.66713 13.47L3.14722 13.834L3.72083 14.6532ZM1.18094 12.7693L0.361787 13.3429L1.50892 14.9812L2.32807 14.4076L3.14722 13.834L2.00009 12.1958L1.18094 12.7693ZM1.94647 11.0125L1.37289 10.1934L0.852938 10.5575L1.42651 11.3766L2.00009 12.1958L2.52005 11.8317L1.94647 11.0125ZM2.30774 9H1.30774C1.30774 9.36251 1.33538 9.71926 1.38884 10.0681L2.3773 9.91656L3.36575 9.76507C3.32761 9.51618 3.30774 9.26072 3.30774 9H2.30774ZM2.37733 8.08327L1.38889 7.93172C1.3354 8.28054 1.30774 8.63735 1.30774 9H2.30774H3.30774C3.30774 8.73918 3.32762 8.4837 3.36578 8.23483L2.37733 8.08327ZM1.4266 6.62313L0.853032 7.44229L1.37294 7.80633L1.94651 6.98717L2.52007 6.16801L2.00016 5.80397L1.4266 6.62313ZM2.32815 3.59211L1.509 3.01854L0.361856 4.65682L1.18101 5.2304L2.00016 5.80397L3.1473 4.16569L2.32815 3.59211ZM4.24094 3.7107L4.81453 2.89156L4.29448 2.52741L3.72089 3.34655L3.1473 4.16569L3.66735 4.52984L4.24094 3.7107ZM5.65658 3.61593L5.21412 2.71915C5.1206 2.76529 5.02826 2.81345 4.93718 2.86357L5.4193 3.73968L5.90143 4.61578C5.96644 4.58 6.03232 4.54564 6.09904 4.51272L5.65658 3.61593ZM6.30774 2H5.30774V2.6342H6.30774H7.30774V2H6.30774ZM10.3077 9H9.30774C9.30774 9.55229 8.86002 10 8.30774 10V11V12C9.96459 12 11.3077 10.6569 11.3077 9H10.3077ZM8.30774 7V8C8.86002 8 9.30774 8.44771 9.30774 9H10.3077H11.3077C11.3077 7.34314 9.96459 6 8.30774 6V7ZM6.30774 9H7.30774C7.30774 8.44771 7.75546 8 8.30774 8V7V6C6.65089 6 5.30774 7.34314 5.30774 9H6.30774ZM8.30774 11V10C7.75546 10 7.30774 9.55229 7.30774 9H6.30774H5.30774C5.30774 10.6569 6.65089 12 8.30774 12V11ZM5.65658 3.61593L6.09904 4.51272C6.75882 4.1872 7.30774 3.50289 7.30774 2.6342H6.30774H5.30774C5.30774 2.62785 5.31065 2.63244 5.29854 2.65019C5.28472 2.67046 5.25686 2.69806 5.21412 2.71915L5.65658 3.61593ZM1.4266 6.62313L2.00016 5.80397L2.00016 5.80397L1.18101 5.2304L0.361856 4.65682C-0.271707 5.56164 -0.0517981 6.80875 0.853032 7.44229L1.4266 6.62313ZM2.37733 8.08327L3.36578 8.23483C3.47725 7.50782 3.2314 6.66607 2.52007 6.16801L1.94651 6.98717L1.37294 7.80633C1.36775 7.8027 1.37319 7.80296 1.38079 7.82306C1.38947 7.84599 1.3961 7.88463 1.38889 7.93172L2.37733 8.08327ZM1.94647 11.0125L2.52005 11.8317C3.23128 11.3337 3.47717 10.492 3.36575 9.76507L2.3773 9.91656L1.38884 10.0681C1.39605 10.1151 1.38942 10.1537 1.38074 10.1767C1.37314 10.1968 1.36771 10.197 1.37289 10.1934L1.94647 11.0125ZM1.18094 12.7693L2.00009 12.1958H2.00009L1.42651 11.3766L0.852938 10.5575C-0.0518737 11.191 -0.271769 12.4381 0.361787 13.3429L1.18094 12.7693ZM3.72083 14.6532L3.14722 13.834H3.14722L2.32807 14.4076L1.50892 14.9812C2.14249 15.886 3.38964 16.1059 4.29445 15.4723L3.72083 14.6532ZM5.41911 14.2601L5.90136 13.3841C5.25574 13.0287 4.37928 12.9713 3.66713 13.47L4.24075 14.2891L4.81436 15.1082C4.80918 15.1118 4.81122 15.1069 4.83256 15.1066C4.85694 15.1063 4.89532 15.1133 4.93687 15.1362L5.41911 14.2601ZM6.30774 15.3658H7.30774C7.30774 14.4971 6.7588 13.8128 6.09913 13.4873L5.65657 14.384L5.21401 15.2808C5.25679 15.3019 5.28469 15.3295 5.29853 15.3498C5.31065 15.3676 5.30774 15.3722 5.30774 15.3658H6.30774ZM7.30774 17V16V16H6.30774H5.30774C5.30774 17.1046 6.20317 18 7.30774 18V17ZM10.3077 16H9.30774V16V17V18C10.4123 18 11.3077 17.1046 11.3077 16H10.3077ZM10.9589 14.384L10.5164 13.4873C9.85668 13.8128 9.30774 14.4971 9.30774 15.3658H10.3077H11.3077C11.3077 15.3722 11.3048 15.3676 11.317 15.3498C11.3308 15.3295 11.3587 15.3019 11.4015 15.2808L10.9589 14.384ZM14.2875 14.4076L13.4683 13.8341V13.8341L12.8947 14.6532L12.3211 15.4723C13.2259 16.1059 14.473 15.886 15.1066 14.9812L14.2875 14.4076ZM15.189 11.3766L14.6154 12.1958V12.1958L15.4346 12.7694L16.2537 13.3429C16.8873 12.4381 16.6674 11.191 15.7626 10.5575L15.189 11.3766ZM14.2382 9.91655L13.2497 9.76506C13.1383 10.492 13.3842 11.3337 14.0955 11.8317L14.669 11.0125L15.2426 10.1934C15.2478 10.197 15.2423 10.1967 15.2347 10.1767C15.2261 10.1537 15.2194 10.1151 15.2266 10.068L14.2382 9.91655ZM14.669 6.98717L14.0955 6.16801C13.3841 6.66607 13.1383 7.50781 13.2497 8.23478L14.2382 8.08328L15.2266 7.93178C15.2194 7.88467 15.2261 7.84602 15.2347 7.82307C15.2423 7.80296 15.2478 7.80269 15.2426 7.80633L14.669 6.98717ZM15.4345 5.2304L14.6154 5.80397V5.80397L15.1889 6.62313L15.7625 7.44229C16.6673 6.80875 16.8872 5.56164 16.2537 4.65682L15.4345 5.2304ZM12.8947 3.34653L13.4682 4.16568V4.16568L14.2874 3.5921L15.1065 3.01852C14.473 2.11371 13.2259 1.89382 12.3211 2.52738L12.8947 3.34653ZM11.1962 3.73968L10.7141 4.61578C11.3596 4.97103 12.236 5.02852 12.9481 4.52987L12.3745 3.71072L11.801 2.89157C11.8061 2.88793 11.8041 2.89292 11.7827 2.89317C11.7583 2.89346 11.7199 2.88647 11.6783 2.86358L11.1962 3.73968ZM10.3077 2.6342H9.30774C9.30774 3.50289 9.85666 4.1872 10.5164 4.51272L10.9589 3.61593L11.4014 2.71915C11.3586 2.69806 11.3308 2.67046 11.3169 2.65019C11.3048 2.63244 11.3077 2.62785 11.3077 2.6342H10.3077ZM4.24094 3.7107L3.66735 4.52984C4.3795 5.02851 5.25588 4.97103 5.90143 4.61578L5.4193 3.73968L4.93718 2.86357C4.89559 2.88646 4.85716 2.89345 4.83276 2.89317C4.81139 2.89292 4.80934 2.88793 4.81453 2.89156L4.24094 3.7107ZM7.30774 1V0C6.20317 0 5.30774 0.89543 5.30774 2H6.30774H7.30774V2V1ZM12.3747 14.2891L12.9483 13.4699C12.2362 12.9713 11.3597 13.0287 10.7141 13.3841L11.1964 14.2601L11.6786 15.1362C11.7202 15.1133 11.7586 15.1063 11.7829 15.1066C11.8043 15.1068 11.8063 15.1118 11.8011 15.1082L12.3747 14.2891ZM2.32815 3.59211L3.1473 4.16569L3.1473 4.16569L3.72089 3.34655L4.29448 2.52741C3.38967 1.89383 2.14256 2.11372 1.509 3.01854L2.32815 3.59211ZM9.30774 1V2V2H10.3077H11.3077C11.3077 0.89543 10.4123 0 9.30774 0V1Z" fill="black" fill-opacity="0.1" mask="url(#path-1-outside-1_69_3307)"/>
<rect x="8" y="1" width="13" height="9" rx="1" fill="#EE1A26"/>
<g filter="url(#filter0_d_69_3307)">
<path d="M10 3H11V5H13V3H14V8H13V6H11V8H10V3Z" fill="#F1F2F1"/>
<path d="M15 3H18V4H16V7H18V8H15V3Z" fill="#F1F2F1"/>
<path d="M18 7V4H19V7H18Z" fill="#F1F2F1"/>
</g>
<defs>
<filter id="filter0_d_69_3307" x="10" y="3" width="9" height="6" filterUnits="userSpaceOnUse" color-interpolation-filters="sRGB">
<feFlood flood-opacity="0" result="BackgroundImageFix"/>
<feColorMatrix in="SourceAlpha" type="matrix" values="0 0 0 0 0 0 0 0 0 0 0 0 0 0 0 0 0 0 127 0" result="hardAlpha"/>
<feOffset dy="1"/>
<feColorMatrix type="matrix" values="0 0 0 0 0.337255 0 0 0 0 0.0392157 0 0 0 0 0.0588235 0 0 0 1 0"/>
<feBlend mode="normal" in2="BackgroundImageFix" result="effect1_dropShadow_69_3307"/>
<feBlend mode="normal" in="SourceGraphic" in2="effect1_dropShadow_69_3307" result="shape"/>
</filter>
</defs>
</svg>
