<svg width="14" height="16" viewBox="0 0 14 16" fill="none" xmlns="http://www.w3.org/2000/svg">
<mask id="path-1-outside-1_69_3321" maskUnits="userSpaceOnUse" x="0" y="0" width="14" height="16" fill="black">
<rect fill="white" width="14" height="16"/>
<path fill-rule="evenodd" clip-rule="evenodd" d="M1 2L9 8L1 14V2ZM13 2H11V14H13V2Z"/>
</mask>
<path fill-rule="evenodd" clip-rule="evenodd" d="M1 2L9 8L1 14V2ZM13 2H11V14H13V2Z" fill="#EAEAEA"/>
<path d="M9 8L9.6 8.8L10.6667 8L9.6 7.2L9 8ZM1 2L1.6 1.2L0 0V2H1ZM1 14H0V16L1.6 14.8L1 14ZM11 2V1H10V2H11ZM13 2H14V1H13V2ZM11 14H10V15H11V14ZM13 14V15H14V14H13ZM9 8L9.6 7.2L1.6 1.2L1 2L0.4 2.8L8.4 8.8L9 8ZM1 14L1.6 14.8L9.6 8.8L9 8L8.4 7.2L0.4 13.2L1 14ZM1 2H0V14H1H2V2H1ZM11 2V3H13V2V1H11V2ZM11 14H12V2H11H10V14H11ZM13 14V13H11V14V15H13V14ZM13 2H12V14H13H14V2H13Z" fill="black" fill-opacity="0.1" mask="url(#path-1-outside-1_69_3321)"/>
</svg>
